<?xml version="1.0" encoding="UTF-8" standalone="no"?><!DOCTYPE svg PUBLIC "-//W3C//DTD SVG 1.1//EN" "http://www.w3.org/Graphics/SVG/1.1/DTD/svg11.dtd"><svg width="100%" height="100%" viewBox="0 0 3159 825" version="1.1" xmlns="http://www.w3.org/2000/svg" xmlns:xlink="http://www.w3.org/1999/xlink" xml:space="preserve" xmlns:serif="http://www.serif.com/" style="fill-rule:evenodd;clip-rule:evenodd;stroke-linejoin:round;stroke-miterlimit:2;"><path d="M1754.167,333.333l-4.167,4.167l0,37.5l4.167,4.167l0,37.5l-4.167,4.167l0,175l4.167,4.167l0,16.667l-4.167,4.167l0,25l54.167,0l0,-8.333l4.167,-4.167l0,-8.333l-4.167,-4.167l0,-262.5l4.167,-4.167l0,-16.667l-4.167,-4.167l-50,0Zm791.667,-4.167l-45.833,29.167l-20.833,25l-16.667,29.167l0,8.333l-8.333,16.667l0,12.5l-4.167,4.167l0,70.833l4.167,4.167l4.167,29.167l16.667,29.167l33.333,37.5l45.833,25l12.5,0l4.167,4.167l75,0l4.167,-4.167l20.833,-4.167l37.5,-20.833l33.333,-33.333l12.5,-25l0,-8.333l-50,-12.5l-4.167,12.5l-29.167,29.167l-20.833,12.5l-12.5,0l-4.167,4.167l-50,0l-4.167,-4.167l-20.833,-4.167l-37.5,-33.333l-12.5,-25l0,-29.167l4.167,-4.167l245.833,0l4.167,-4.167l0,-29.167l-4.167,-4.167l0,-25l-4.167,-4.167l-8.333,-33.333l-16.667,-25l-33.333,-33.333l-33.333,-16.667l-8.333,0l-16.667,-8.333l-58.333,0l-4.167,4.167l-29.167,4.167Zm-33.333,104.167l16.667,-29.167l25,-20.833l33.333,-12.5l37.5,0l33.333,12.5l25,20.833l16.667,25l0,25l-4.167,4.167l-179.167,0l-4.167,-4.167l0,-20.833Zm-533.333,-112.5l-4.167,4.167l-25,4.167l-37.5,20.833l-41.667,45.833l-12.5,25l0,8.333l-8.333,16.667l0,20.833l-4.167,4.167l4.167,58.333l4.167,4.167l4.167,20.833l20.833,37.5l45.833,41.667l25,12.5l25,4.167l4.167,4.167l66.667,0l4.167,-4.167l25,-4.167l41.667,-25l20.833,-20.833l25,-41.667l0,-12.5l-20.833,-8.333l-29.167,-4.167l-25,41.667l-12.5,12.5l-25,12.5l-12.5,0l-4.167,4.167l-45.833,0l-4.167,-4.167l-8.333,0l-29.167,-16.667l-25,-25l-12.5,-25l-4.167,-25l-4.167,-4.167l0,-25l4.167,-4.167l0,-20.833l4.167,-4.167l0,-8.333l16.667,-29.167l20.833,-20.833l20.833,-12.5l25,-4.167l4.167,-4.167l33.333,0l41.667,16.667l29.167,29.167l8.333,16.667l20.833,0l12.5,-8.333l8.333,0l8.333,-4.167l0,-8.333l-16.667,-29.167l-33.333,-33.333l-25,-16.667l-8.333,0l-16.667,-8.333l-12.5,0l-4.167,-4.167l-62.5,0Zm-350,16.667l-41.667,-16.667l-66.667,0l-4.167,4.167l-20.833,4.167l-25,12.5l-8.333,8.333l-16.667,0l-4.167,-4.167l0,-16.667l-54.167,0l0,450l54.167,0l0,-145.833l4.167,-4.167l16.667,0l29.167,16.667l25,4.167l4.167,4.167l62.5,0l4.167,-4.167l25,-4.167l25,-12.5l37.5,-33.333l16.667,-25l16.667,-41.667l0,-25l4.167,-4.167l0,-41.667l-4.167,-4.167l0,-16.667l-4.167,-4.167l-4.167,-20.833l-25,-41.667l-45.833,-37.5Zm-112.5,37.5l50,-4.167l41.667,16.667l29.167,29.167l16.667,33.333l0,16.667l4.167,4.167l0,33.333l-4.167,4.167l0,12.5l-4.167,4.167l-4.167,20.833l-41.667,45.833l-29.167,12.5l-45.833,0l-33.333,-12.5l-37.5,-37.5l-12.5,-25l0,-16.667l-4.167,-4.167l0,-45.833l4.167,-4.167l4.167,-20.833l12.5,-20.833l29.167,-29.167l25,-12.5Zm-825,-45.833l0,16.667l-4.167,4.167l0,291.667l4.167,4.167l54.167,0l0,-200l4.167,-4.167l4.167,-20.833l8.333,-12.5l33.333,-29.167l8.333,0l16.667,-8.333l37.5,0l20.833,8.333l20.833,16.667l12.5,20.833l4.167,25l4.167,4.167l0,200l54.167,0l0,-208.333l-4.167,-4.167l0,-20.833l-4.167,-4.167l0,-8.333l-20.833,-37.5l-29.167,-25l-41.667,-16.667l-54.167,0l-4.167,4.167l-16.667,0l-37.5,20.833l-16.667,0l-4.167,-4.167l0,-12.5l-50,0Zm-275,16.667l-20.833,20.833l-16.667,29.167l0,29.167l50,0l4.167,-20.833l8.333,-4.167l0,-8.333l12.5,-12.5l33.333,-12.5l29.167,0l4.167,4.167l16.667,0l8.333,4.167l29.167,25l8.333,20.833l0,20.833l-4.167,4.167l-58.333,4.167l-4.167,4.167l-25,0l-4.167,4.167l-20.833,0l-4.167,4.167l-29.167,4.167l-41.667,25l-12.5,16.667l-12.5,29.167l0,45.833l12.5,29.167l29.167,29.167l8.333,0l12.5,8.333l12.5,0l4.167,4.167l66.667,0l4.167,-4.167l20.833,-4.167l25,-16.667l16.667,0l4.167,4.167l0,12.5l54.167,0l0,-225l-4.167,-4.167l-4.167,-29.167l-8.333,-8.333l-4.167,-12.5l-25,-25l-50,-20.833l-70.833,0l-4.167,4.167l-12.5,0l-37.5,20.833Zm166.667,150l0,41.667l-4.167,4.167l0,8.333l-8.333,16.667l-25,25l-41.667,16.667l-45.833,0l-25,-12.5l-8.333,-8.333l-8.333,-20.833l0,-16.667l4.167,-4.167l0,-8.333l20.833,-20.833l20.833,-8.333l12.5,0l4.167,-4.167l45.833,-4.167l4.167,-4.167l20.833,0l4.167,-4.167l25,0l4.167,4.167Zm1179.167,-270.833l-16.667,16.667l0,8.333l-4.167,4.167l4.167,25l20.833,16.667l25,0l12.5,-8.333l8.333,-12.5l0,-29.167l-4.167,-8.333l-16.667,-12.5l-29.167,0Zm1350,-20.833l-54.167,0l0,12.5l-4.167,4.167l4.167,112.5l-8.333,12.5l-16.667,0l-25,-16.667l-29.167,-4.167l-4.167,-4.167l-54.167,0l-4.167,4.167l-12.5,0l-4.167,4.167l-20.833,4.167l-25,16.667l-29.167,29.167l0,4.167l-12.5,8.333l-4.167,20.833l-12.5,25l0,20.833l-4.167,4.167l0,58.333l4.167,4.167l0,16.667l12.5,25l0,8.333l20.833,29.167l45.833,37.5l8.333,0l12.5,8.333l12.5,0l4.167,4.167l70.833,0l4.167,-4.167l12.5,0l37.5,-20.833l16.667,0l4.167,4.167l0,12.5l54.167,0l0,-441.667Zm-175,166.667l29.167,0l4.167,4.167l12.5,0l20.833,8.333l16.667,12.5l20.833,25l16.667,41.667l0,54.167l-12.5,25l0,8.333l-33.333,37.5l-12.5,8.333l-8.333,0l-16.667,8.333l-45.833,0l-4.167,-4.167l-20.833,-4.167l-41.667,-37.5l-16.667,-37.5l0,-58.333l4.167,-4.167l4.167,-25l8.333,-12.5l12.5,-8.333l0,-8.333l12.5,-12.5l12.5,-4.167l8.333,-8.333l25,-4.167l4.167,-4.167Zm-737.5,-166.667l0,441.667l54.167,0l0,-87.5l33.333,-37.5l16.667,0l95.833,125l62.5,0l0,-8.333l-12.5,-12.5l-8.333,-16.667l-16.667,-16.667l0,-4.167l-45.833,-54.167l-8.333,-16.667l-29.167,-33.333l0,-25l108.333,-120.833l0,-8.333l-58.333,0l-25,25l-25,33.333l-12.5,8.333l0,4.167l-29.167,29.167l-25,33.333l-16.667,0l-4.167,-4.167l0,-254.167l-54.167,0Zm-866.667,0l-54.167,0l0,137.5l-4.167,4.167l-20.833,0l-25,-16.667l-25,-4.167l-4.167,-4.167l-58.333,0l-4.167,4.167l-16.667,0l-12.5,8.333l-8.333,0l-41.667,29.167l-25,33.333l-16.667,41.667l0,12.5l-4.167,4.167l0,70.833l4.167,4.167l0,12.5l12.5,25l0,8.333l16.667,25l37.5,33.333l33.333,16.667l12.5,0l4.167,4.167l70.833,0l4.167,-4.167l20.833,-4.167l12.5,-8.333l8.333,0l8.333,-8.333l16.667,0l8.333,16.667l50,0l0,-441.667Zm-179.167,166.667l37.5,0l4.167,4.167l12.5,0l29.167,16.667l29.167,33.333l12.5,33.333l0,58.333l-12.5,33.333l-33.333,37.5l-37.5,16.667l-45.833,0l-4.167,-4.167l-20.833,-4.167l-41.667,-37.5l-16.667,-37.5l0,-62.5l4.167,-4.167l4.167,-20.833l29.167,-37.5l16.667,-12.5l33.333,-12.5Zm-1112.5,-166.667l-0,441.667l54.167,0l0,-179.167l4.167,-4.167l0,-16.667l4.167,-4.167l4.167,-20.833l29.167,-33.333l41.667,-16.667l29.167,0l4.167,4.167l12.5,0l37.5,33.333l8.333,16.667l0,16.667l4.167,4.167l0,200l54.167,0l0,-208.333l-4.167,-4.167l0,-20.833l-4.167,-4.167l0,-8.333l-16.667,-33.333l-12.5,-16.667l-45.833,-25l-12.5,0l-4.167,-4.167l-58.333,0l-4.167,4.167l-33.333,8.333l-16.667,12.5l-16.667,0l-4.167,-4.167l0,-137.5l-54.167,0Zm1608.333,29.167l0,29.167l41.667,0l4.167,-4.167l0,-20.833l12.5,-25l16.667,-16.667l33.333,-16.667l37.5,0l29.167,12.5l25,25l0,8.333l8.333,8.333l4.167,29.167l41.667,0l0,-33.333l-25,-50l-29.167,-25l-25,-12.5l-25,-4.167l-4.167,-4.167l-33.333,0l-4.167,4.167l-16.667,0l-41.667,20.833l-29.167,29.167l-16.667,29.167l0,12.5l-4.167,4.167Zm-91.667,4.167l0,25l45.833,0l0,-29.167l4.167,-4.167l0,-12.5l12.5,-33.333l8.333,-8.333l4.167,-12.5l54.167,-50l25,-12.5l25,-4.167l4.167,-4.167l75,0l4.167,4.167l12.5,0l20.833,12.5l8.333,0l25,16.667l29.167,29.167l25,41.667l0,8.333l8.333,16.667l4.167,41.667l45.833,0l-4.167,-45.833l-4.167,-4.167l0,-12.5l-4.167,-4.167l-4.167,-20.833l-12.5,-25l-29.167,-33.333l0,-4.167l-33.333,-29.167l-45.833,-25l-8.333,0l-29.167,-12.5l-29.167,0l-4.167,-4.167l-29.167,0l-4.167,4.167l-41.667,4.167l-50,20.833l-29.167,20.833l-45.833,50l-25,54.167l0,8.333l-4.167,4.167l0,25l-4.167,4.167Z" style="fill:#ececec;"/></svg>